<svg width="50" height="50" xmlns="http://www.w3.org/2000/svg">
 <!-- Created with Method Draw - http://github.com/duopixel/Method-Draw/ -->

 <g>
  <title>background</title>
  <rect x="-1" y="-1" width="52" height="52" id="canvas_background" fill="none"/>
 </g>
 <g>
  <title>Layer 1</title>
  <path stroke="null" fill="#eca565" d="m47.247593,37.544393c0,0 0,0 0,0c0.053034,-0.051491 0.053034,-0.102981 0.053034,-0.102981c0,0 0,-0.051491 0,-0.051491c0,0 0,-0.051491 0,-0.051491c0,0 0,-0.051491 0,-0.051491c0,0 0,-0.051491 0,-0.102981c0,0 0,-0.051491 0,-0.051491c0,-0.051491 0,-0.102981 0,-0.102981l0,-23.943124c0,0 0,0 0,-0.051491c0,0 0,-0.051491 0,-0.051491c0,0 0,-0.051491 0,-0.051491c0,0 0,0 0,-0.051491c0,0 0,0 0,-0.051491c0,0 0,-0.051491 0,-0.051491c0,0 0,-0.051491 0,-0.051491c0,0 0,0 0,0c0,-0.051491 -0.053034,-0.051491 -0.053034,-0.102981c0,0 0,0 0,0c0,0 0,0 0,0c0,0 0,0 0,-0.051491c0,-0.051491 -0.053034,-0.051491 -0.053034,-0.051491c0,0 0,0 0,0c0,0 0,0 0,-0.051491c0,0 -0.053034,-0.051491 -0.053034,-0.051491c0,0 0,0 0,0c0,0 0,0 0,0c0,0 -0.053034,-0.051491 -0.106067,-0.051491c0,0 0,0 -0.053034,0c0,0 0,0 0,0l-21.478604,-12.100288c-0.318202,-0.154472 -0.689437,-0.154472 -0.954605,0l-21.372537,11.997307c0,0 0,0 0,0c-0.053034,0 -0.053034,0.051491 -0.106067,0.051491c0,0 0,0 -0.053034,0c0,0 -0.053034,0.051491 -0.053034,0.051491c0,0 0,0 -0.053034,0.051491c0,0 -0.053034,0.051491 -0.053034,0.051491c0,0 0,0.051491 -0.053034,0.051491c0,0 0,0 -0.053034,0.051491c0,0 0,0 0,0c0,0 0,0.051491 0,0.051491c0,0 0,0.051491 -0.053034,0.051491c0,0 0,0.051491 0,0.051491c0,0 0,0.051491 0,0.051491c0,0 0,0.051491 0,0.051491c0,0 0,0.051491 0,0.051491c0,0 0,0.051491 0,0.051491c0,0 0,0.051491 0,0.051491c0,0 0,0 0,0.051491l0,23.943124c0,0 0,0 0,0l0,0c0,0.051491 0,0.102981 0,0.154472c0,0 0,0.051491 0,0.051491c0,0.051491 0.053034,0.102981 0.053034,0.154472c0,0 0,0 0,0c0,0 0,0 0,0c0,0.051491 0.053034,0.102981 0.106067,0.154472c0,0 0,0 0,0.051491c0,0.102981 0.053034,0.154472 0.106067,0.154472c0,0 0,0 0,0c0.053034,0.051491 0.053034,0.051491 0.106067,0.102981c0,0 0,0 0.053034,0c0,0 0,0 0.053034,0l21.372537,11.997307c0,0 0,0 0,0c0,0 0.053034,0 0.053034,0.051491c0,0 0.053034,0 0.053034,0c0,0 0.053034,0 0.053034,0c0,0 0.053034,0 0.053034,0c0,0 0.053034,0 0.053034,0c0,0 0,0 0.053034,0c0.053034,0 0.053034,0 0.106067,0c0.053034,0 0.053034,0 0.106067,0c0,0 0,0 0.053034,0c0.053034,0 0.053034,0 0.106067,0c0,0 0.053034,0 0.053034,0c0,0 0.053034,0 0.053034,0c0,0 0.053034,0 0.053034,0c0,0 0.053034,0 0.053034,-0.051491c0,0 0,0 0,0l21.372537,-11.997307c0,0 0,0 0,0c0,0 0,0 0.053034,0c0,0 0,0 0.053034,0c0,0 0.053034,0 0.053034,-0.051491c0,0 0.053034,-0.051491 0.053034,-0.051491c0,0 0.053034,0 0.053034,-0.051491c0,0 0.053034,-0.051491 0.053034,-0.051491c0,0 0,-0.051491 0.053034,-0.051491c0,0.051491 0,0 0.053034,0zm-42.426872,-19.103009l5.939762,14.314384c0.053034,0.154472 0,0.360434 -0.212134,0.463415l-5.46246,2.214095c-0.212134,0.102981 -0.477302,-0.051491 -0.477302,-0.308944l0,-16.63146c0,-0.102981 0.159101,-0.154472 0.212134,-0.051491zm30.759482,14.211403l-21.107369,0c-0.265168,0 -0.424269,-0.308944 -0.318202,-0.514906l10.553684,-17.764253c0.159101,-0.205962 0.477302,-0.205962 0.583369,0l10.553684,17.764253c0.159101,0.257453 0,0.514906 -0.265168,0.514906zm-23.49388,-1.853661l-6.841333,-16.425498c-0.106067,-0.205962 0.053034,-0.463415 0.318202,-0.463415l17.076816,-0.823849c0.265168,0 0.477302,0.257453 0.318202,0.514906l-10.288517,17.249347c-0.106067,0.257453 -0.477302,0.257453 -0.583369,-0.051491zm23.281746,4.32521l-10.076382,12.048798c-0.159101,0.154472 -0.424269,0.154472 -0.530336,0l-10.076382,-12.048798c-0.159101,-0.205962 0,-0.566396 0.265168,-0.566396l20.152764,0c0.265168,0 0.424269,0.360434 0.265168,0.566396zm2.015276,-4.273719l-10.288517,-17.249347c-0.159101,-0.257453 0.053034,-0.514906 0.318202,-0.514906l17.076816,0.823849c0.265168,0 0.371235,0.257453 0.318202,0.463415l-6.841333,16.425498c-0.106067,0.308944 -0.477302,0.308944 -0.583369,0.051491zm-11.402222,-20.029839l0,-7.517626c0,-0.257453 0.318202,-0.411925 0.530336,-0.308944l15.485808,8.70191c0.106067,0.051491 0.053034,0.205962 -0.053034,0.205962l-15.644909,-0.772359c-0.159101,0 -0.318202,-0.154472 -0.318202,-0.308944zm-2.280444,0.308944l-15.644909,0.772359c-0.106067,0 -0.159101,-0.154472 -0.053034,-0.205962l15.538842,-8.650419c0.212134,-0.154472 0.530336,0.051491 0.530336,0.308944l0,7.466135c0,0.154472 -0.159101,0.308944 -0.371235,0.308944zm-11.66739,23.840143l8.538408,10.246627c0.053034,0.102981 -0.053034,0.205962 -0.159101,0.154472l-13.947834,-7.82657c-0.265168,-0.154472 -0.212134,-0.514906 0.053034,-0.617887l5.144258,-2.059624c0.106067,-0.051491 0.265168,0 0.371235,0.102981zm26.357694,-0.102981l5.144258,2.059624c0.265168,0.102981 0.318202,0.463415 0.053034,0.617887l-14.000868,7.82657c-0.106067,0.051491 -0.212134,-0.051491 -0.159101,-0.154472l8.538408,-10.246627c0.159101,-0.102981 0.318202,-0.154472 0.424269,-0.102981zm6.576165,0.566396l-5.46246,-2.214095c-0.159101,-0.051491 -0.265168,-0.257453 -0.212134,-0.463415l5.939762,-14.314384c0.053034,-0.102981 0.212134,-0.051491 0.212134,0.051491l0,16.63146c0,0.257453 -0.265168,0.411925 -0.477302,0.308944z" id="svg_1"/>
 </g>
</svg>